<svg width="77" height="77" viewBox="0 0 77 77" fill="none" xmlns="http://www.w3.org/2000/svg">
<path d="M72.2236 71.7311H4.77558C4.37133 71.7311 3.99756 71.5154 3.79624 71.1656C3.59331 70.8159 3.59331 70.3836 3.79624 70.0339L34.184 17.3964C34.3853 17.0459 34.7591 16.8301 35.1641 16.8301C35.5676 16.8301 35.9421 17.0459 36.1435 17.3964L39.4801 23.1746C39.6822 23.5251 39.6822 23.9566 39.4801 24.3071L16.7443 63.6886H75.5602C75.9645 63.6886 76.3383 63.9044 76.5396 64.2549C76.7425 64.6046 76.7425 65.0361 76.5396 65.3866L73.2037 71.1656C73.0016 71.5154 72.6286 71.7311 72.2236 71.7311ZM6.73587 69.4676H71.5699L73.5999 65.9521H14.784C14.3797 65.9521 14.006 65.7363 13.8046 65.3866C13.6017 65.0361 13.6017 64.6046 13.8046 64.2549L37.1934 23.7409L35.1641 20.2253L6.73587 69.4676Z" fill="white"/>
<path d="M75.5601 65.9521H14.7839C14.3796 65.9521 14.0059 65.7363 13.8045 65.3866C13.6016 65.0361 13.6016 64.6046 13.8045 64.2549L17.1404 58.4751C17.3425 58.1254 17.7155 57.9096 18.1205 57.9096H63.5915L34.1839 6.9701C33.9817 6.6204 33.9817 6.18887 34.1839 5.83836C34.3852 5.48866 34.759 5.2729 35.164 5.2729H41.8357C42.24 5.2729 42.6138 5.48866 42.8159 5.83836L76.5395 64.2549C76.7424 64.6046 76.7424 65.0361 76.5395 65.3866C76.3382 65.7363 75.9644 65.9521 75.5601 65.9521ZM16.7442 63.6886H73.5999L41.1821 7.53637H37.1235L66.5311 58.4751C66.734 58.8256 66.734 59.2571 66.5311 59.6076C66.3298 59.9573 65.956 60.1731 65.5518 60.1731H18.7742L16.7442 63.6886Z" fill="white"/>
<path d="M65.5518 59.0414L35.1633 6.40463L1.4397 64.8204L4.77556 70.5994L35.1633 17.9619L58.8793 59.0414H65.5518Z" fill="#17D8E2"/>
<path d="M4.77571 71.7311C4.37146 71.7311 3.99769 71.5154 3.79637 71.1656L0.459699 65.3866C0.257574 65.0361 0.257574 64.6046 0.459699 64.2549L34.1841 5.83836C34.3854 5.48866 34.7592 5.2729 35.1642 5.2729C35.5685 5.2729 35.9423 5.48866 36.1436 5.83836L66.5313 58.4751C66.7342 58.8256 66.7342 59.2571 66.5313 59.6076C66.33 59.9573 65.9562 60.1731 65.552 60.1731H58.8794C58.4744 60.1731 58.1014 59.9573 57.8993 59.6076L35.1642 20.2253L5.75586 71.1656C5.55373 71.5154 5.18076 71.7311 4.77571 71.7311ZM2.74644 64.8204L4.77571 68.3359L34.1841 17.3964C34.3854 17.0459 34.7592 16.8301 35.1642 16.8301C35.5685 16.8301 35.9423 17.0459 36.1436 17.3964L59.5331 57.9096H63.5917L35.1642 8.66811L2.74644 64.8204Z" fill="white"/>
</svg>
