<svg width="284" height="77" viewBox="0 0 284 77" fill="none" xmlns="http://www.w3.org/2000/svg">
<path d="M100.4 32.35V48.5C100.4 49.8333 100.683 50.7833 101.25 51.35C101.817 51.8833 102.8 52.15 104.2 52.15H107.55V56H103.45C100.917 56 99.0167 55.4167 97.75 54.25C96.4833 53.0833 95.85 51.1667 95.85 48.5V32.35H92.3V28.6H95.85V21.7H100.4V28.6H107.55V32.35H100.4ZM117.613 33.05C118.413 31.4833 119.546 30.2667 121.013 29.4C122.513 28.5333 124.33 28.1 126.463 28.1V32.8H125.263C120.163 32.8 117.613 35.5667 117.613 41.1V56H113.063V28.6H117.613V33.05ZM134.065 24.15C133.199 24.15 132.465 23.85 131.865 23.25C131.265 22.65 130.965 21.9167 130.965 21.05C130.965 20.1833 131.265 19.45 131.865 18.85C132.465 18.25 133.199 17.95 134.065 17.95C134.899 17.95 135.599 18.25 136.165 18.85C136.765 19.45 137.065 20.1833 137.065 21.05C137.065 21.9167 136.765 22.65 136.165 23.25C135.599 23.85 134.899 24.15 134.065 24.15ZM136.265 28.6V56H131.715V28.6H136.265ZM142.32 42.2C142.32 39.4 142.887 36.95 144.02 34.85C145.153 32.7167 146.703 31.0667 148.67 29.9C150.67 28.7333 152.887 28.15 155.32 28.15C157.72 28.15 159.803 28.6667 161.57 29.7C163.337 30.7333 164.653 32.0333 165.52 33.6V28.6H170.12V56H165.52V50.9C164.62 52.5 163.27 53.8333 161.47 54.9C159.703 55.9333 157.637 56.45 155.27 56.45C152.837 56.45 150.637 55.85 148.67 54.65C146.703 53.45 145.153 51.7667 144.02 49.6C142.887 47.4333 142.32 44.9667 142.32 42.2ZM165.52 42.25C165.52 40.1833 165.103 38.3833 164.27 36.85C163.437 35.3167 162.303 34.15 160.87 33.35C159.47 32.5167 157.92 32.1 156.22 32.1C154.52 32.1 152.97 32.5 151.57 33.3C150.17 34.1 149.053 35.2667 148.22 36.8C147.387 38.3333 146.97 40.1333 146.97 42.2C146.97 44.3 147.387 46.1333 148.22 47.7C149.053 49.2333 150.17 50.4167 151.57 51.25C152.97 52.05 154.52 52.45 156.22 52.45C157.92 52.45 159.47 52.05 160.87 51.25C162.303 50.4167 163.437 49.2333 164.27 47.7C165.103 46.1333 165.52 44.3167 165.52 42.25ZM191.159 28.1C194.492 28.1 197.192 29.1167 199.259 31.15C201.326 33.15 202.359 36.05 202.359 39.85V56H197.859V40.5C197.859 37.7667 197.176 35.6833 195.809 34.25C194.442 32.7833 192.576 32.05 190.209 32.05C187.809 32.05 185.892 32.8 184.459 34.3C183.059 35.8 182.359 37.9833 182.359 40.85V56H177.809V28.6H182.359V32.5C183.259 31.1 184.476 30.0167 186.009 29.25C187.576 28.4833 189.292 28.1 191.159 28.1ZM221.091 28.15C223.458 28.15 225.525 28.6667 227.291 29.7C229.091 30.7333 230.425 32.0333 231.291 33.6V28.6H235.891V56.6C235.891 59.1 235.358 61.3167 234.291 63.25C233.225 65.2167 231.691 66.75 229.691 67.85C227.725 68.95 225.425 69.5 222.791 69.5C219.191 69.5 216.191 68.65 213.791 66.95C211.391 65.25 209.975 62.9333 209.541 60H214.041C214.541 61.6667 215.575 63 217.141 64C218.708 65.0333 220.591 65.55 222.791 65.55C225.291 65.55 227.325 64.7667 228.891 63.2C230.491 61.6333 231.291 59.4333 231.291 56.6V50.85C230.391 52.45 229.058 53.7833 227.291 54.85C225.525 55.9167 223.458 56.45 221.091 56.45C218.658 56.45 216.441 55.85 214.441 54.65C212.475 53.45 210.925 51.7667 209.791 49.6C208.658 47.4333 208.091 44.9667 208.091 42.2C208.091 39.4 208.658 36.95 209.791 34.85C210.925 32.7167 212.475 31.0667 214.441 29.9C216.441 28.7333 218.658 28.15 221.091 28.15ZM231.291 42.25C231.291 40.1833 230.875 38.3833 230.041 36.85C229.208 35.3167 228.075 34.15 226.641 33.35C225.241 32.5167 223.691 32.1 221.991 32.1C220.291 32.1 218.741 32.5 217.341 33.3C215.941 34.1 214.825 35.2667 213.991 36.8C213.158 38.3333 212.741 40.1333 212.741 42.2C212.741 44.3 213.158 46.1333 213.991 47.7C214.825 49.2333 215.941 50.4167 217.341 51.25C218.741 52.05 220.291 52.45 221.991 52.45C223.691 52.45 225.241 52.05 226.641 51.25C228.075 50.4167 229.208 49.2333 230.041 47.7C230.875 46.1333 231.291 44.3167 231.291 42.25ZM248.13 19V56H243.58V19H248.13ZM280.885 41.25C280.885 42.1167 280.835 43.0333 280.735 44H258.835C259.002 46.7 259.918 48.8167 261.585 50.35C263.285 51.85 265.335 52.6 267.735 52.6C269.702 52.6 271.335 52.15 272.635 51.25C273.968 50.3167 274.902 49.0833 275.435 47.55H280.335C279.602 50.1833 278.135 52.3333 275.935 54C273.735 55.6333 271.002 56.45 267.735 56.45C265.135 56.45 262.802 55.8667 260.735 54.7C258.702 53.5333 257.102 51.8833 255.935 49.75C254.768 47.5833 254.185 45.0833 254.185 42.25C254.185 39.4167 254.752 36.9333 255.885 34.8C257.018 32.6667 258.602 31.0333 260.635 29.9C262.702 28.7333 265.068 28.15 267.735 28.15C270.335 28.15 272.635 28.7167 274.635 29.85C276.635 30.9833 278.168 32.55 279.235 34.55C280.335 36.5167 280.885 38.75 280.885 41.25ZM276.185 40.3C276.185 38.5667 275.802 37.0833 275.035 35.85C274.268 34.5833 273.218 33.6333 271.885 33C270.585 32.3333 269.135 32 267.535 32C265.235 32 263.268 32.7333 261.635 34.2C260.035 35.6667 259.118 37.7 258.885 40.3H276.185Z" fill="black"/>
<path d="M72.2236 71.7311H4.77558C4.37133 71.7311 3.99756 71.5153 3.79624 71.1656C3.59331 70.8159 3.59331 70.3836 3.79624 70.0339L34.184 17.3964C34.3853 17.0459 34.7591 16.8301 35.1641 16.8301C35.5676 16.8301 35.9421 17.0459 36.1435 17.3964L39.4801 23.1746C39.6822 23.5251 39.6822 23.9566 39.4801 24.3071L16.7443 63.6886H75.5602C75.9645 63.6886 76.3383 63.9044 76.5396 64.2549C76.7425 64.6046 76.7425 65.0361 76.5396 65.3866L73.2037 71.1656C73.0016 71.5153 72.6286 71.7311 72.2236 71.7311ZM6.73587 69.4676H71.5699L73.5999 65.9521H14.784C14.3797 65.9521 14.006 65.7363 13.8046 65.3866C13.6017 65.0361 13.6017 64.6046 13.8046 64.2549L37.1934 23.7409L35.1641 20.2253L6.73587 69.4676Z" fill="#231F20"/>
<path d="M75.5601 65.9521H14.7839C14.3796 65.9521 14.0059 65.7363 13.8045 65.3866C13.6016 65.0361 13.6016 64.6046 13.8045 64.2549L17.1404 58.4751C17.3425 58.1254 17.7155 57.9096 18.1205 57.9096H63.5915L34.1839 6.9701C33.9817 6.62039 33.9817 6.18887 34.1839 5.83836C34.3852 5.48865 34.759 5.27289 35.164 5.27289H41.8357C42.24 5.27289 42.6138 5.48865 42.8159 5.83836L76.5395 64.2549C76.7424 64.6046 76.7424 65.0361 76.5395 65.3866C76.3382 65.7363 75.9644 65.9521 75.5601 65.9521ZM16.7442 63.6886H73.5999L41.1821 7.53637H37.1235L66.5311 58.4751C66.734 58.8256 66.734 59.2571 66.5311 59.6076C66.3298 59.9573 65.956 60.1731 65.5518 60.1731H18.7742L16.7442 63.6886Z" fill="#231F20"/>
<path d="M65.5518 59.0414L35.1633 6.40463L1.4397 64.8204L4.77556 70.5994L35.1633 17.9619L58.8793 59.0414H65.5518Z" fill="#17D8E2"/>
<path d="M4.77571 71.7311C4.37146 71.7311 3.99769 71.5153 3.79637 71.1656L0.459699 65.3866C0.257574 65.0361 0.257574 64.6046 0.459699 64.2549L34.1841 5.83836C34.3854 5.48865 34.7592 5.27289 35.1642 5.27289C35.5685 5.27289 35.9423 5.48865 36.1436 5.83836L66.5313 58.4751C66.7342 58.8256 66.7342 59.2571 66.5313 59.6076C66.33 59.9573 65.9562 60.1731 65.552 60.1731H58.8794C58.4744 60.1731 58.1014 59.9573 57.8993 59.6076L35.1642 20.2253L5.75586 71.1656C5.55373 71.5153 5.18076 71.7311 4.77571 71.7311ZM2.74644 64.8204L4.77571 68.3359L34.1841 17.3964C34.3854 17.0459 34.7592 16.8301 35.1642 16.8301C35.5685 16.8301 35.9423 17.0459 36.1436 17.3964L59.5331 57.9096H63.5917L35.1642 8.66811L2.74644 64.8204Z" fill="#231F20"/>
</svg>
